<svg width="160" height="50" viewBox="0 0 160 50" fill="none" xmlns="http://www.w3.org/2000/svg">
<path d="M33.9388 27.7016H10.0146V20.1132C10.0146 18.8319 10.2477 17.5904 10.7139 16.4183C12.0932 12.932 15.357 10.5284 19.0287 10.29L19.9806 10.2304V0.0297852H14.3468H14.2982C12.2778 0.208569 10.3448 0.78465 8.53813 1.72823C7.07139 2.49303 5.74065 3.49622 4.57503 4.68811C3.40942 5.88994 2.43808 7.25068 1.69014 8.76042C1.14619 9.86292 0.718795 11.025 0.437105 12.2268C0.145702 13.4585 0 14.7398 0 16.0111V37.9221H43.9534L33.9388 27.7016Z" fill="white"/>
<path d="M97.0374 37.9421V0.0397949H86.9839V27.662H76.5323C74.5507 27.662 72.948 26.0231 72.948 23.9969V0.0397949H62.8946V29.2909C62.8946 34.0684 66.6828 37.952 71.3647 37.9421H97.0374Z" fill="white"/>
<path d="M149.917 0V13.8061H136.085V22.6162C136.085 23.4307 136.736 24.0961 137.533 24.0961H149.917V37.9023H159.971V24.0961V13.816V0.00993004H149.917V0Z" fill="white"/>
<path d="M133.628 21.4642C133.628 17.233 130.277 13.8063 126.139 13.8063H119.388H109.558C109.558 13.8063 109.548 13.8063 109.548 13.7963V10.3498C109.548 10.3498 109.548 10.3398 109.558 10.3398H119.582H133.638V0.0597347C133.638 0.0597347 133.638 0.0498047 133.628 0.0498047H106.984C102.846 0.0498047 99.4949 3.4765 99.4949 7.70773V16.4384C99.4949 20.6696 102.846 24.0963 106.984 24.0963H123.575C123.575 24.0963 123.575 24.0963 123.584 24.1062V27.662C123.584 27.662 123.584 27.672 123.575 27.672H104.371C101.68 27.672 99.4949 29.9068 99.4949 32.6581V37.9421C99.4949 37.9421 99.4949 37.9521 99.5046 37.9521H133.638V21.4642H133.628Z" fill="white"/>
<path d="M147.052 44.269C146.887 44.12 146.625 44.0405 146.285 44.0405H145.372V45.7787H146.285C146.625 45.7787 146.887 45.6992 147.052 45.5503C147.217 45.4013 147.304 45.1828 147.304 44.9146C147.304 44.6365 147.217 44.4279 147.052 44.269Z" fill="#00E27E"/>
<path d="M134.842 44.269C134.677 44.12 134.415 44.0405 134.075 44.0405H133.162V45.7787H134.075C134.415 45.7787 134.677 45.6992 134.842 45.5503C135.007 45.4013 135.095 45.1828 135.095 44.9146C135.095 44.6365 135.007 44.4279 134.842 44.269Z" fill="#00E27E"/>
<path d="M50.5099 11.9985C50.5099 12.952 49.7523 13.7168 48.8295 13.7168H42.3895L32.9674 23.2619L47.3239 37.9421H61.4861L47.8679 24.0168H60.4857V9.04853C60.4857 4.07237 56.542 0.0397949 51.6756 0.0397949H22.3604V10.2802H48.8198C49.7523 10.2802 50.5099 11.045 50.5099 11.9985Z" fill="white"/>
<path d="M127.887 41.3887H125.41H124.517L120.427 45.5702L120.418 50.0001H127.887H155.901L159.99 45.8185L160 41.3887H127.887ZM136.445 46.0768C136.231 46.4046 135.94 46.6628 135.551 46.8416C135.163 47.0204 134.706 47.1098 134.172 47.1098H133.162V48.6692H131.52V42.7196H134.182C134.716 42.7196 135.172 42.809 135.561 42.9878C135.949 43.1666 136.241 43.4149 136.455 43.7526C136.668 44.0804 136.775 44.4777 136.775 44.9246C136.756 45.3617 136.649 45.749 136.445 46.0768ZM140.884 48.6692H139.262L136.775 42.7196H138.553L140.126 46.5933L141.739 42.7196H143.371L140.884 48.6692ZM148.645 46.0768C148.431 46.4046 148.14 46.6628 147.751 46.8416C147.363 47.0204 146.906 47.1098 146.372 47.1098H145.372V48.6692H143.72V42.7196H146.382C146.916 42.7196 147.372 42.809 147.761 42.9878C148.15 43.1666 148.441 43.4149 148.655 43.7526C148.868 44.0804 148.975 44.4777 148.975 44.9246C148.966 45.3617 148.859 45.749 148.645 46.0768Z" fill="#00E27E"/>
</svg>
